<svg xmlns="http://www.w3.org/2000/svg" viewBox="0 0 30 20">
  <rect width="30" height="20" fill="#b22234"/>
  <rect y="1.54" width="30" height="1.54" fill="#fff"/>
  <rect y="4.62" width="30" height="1.54" fill="#fff"/>
  <rect y="7.69" width="30" height="1.54" fill="#fff"/>
  <rect y="10.77" width="30" height="1.54" fill="#fff"/>
  <rect y="13.85" width="30" height="1.54" fill="#fff"/>
  <rect y="16.92" width="30" height="1.54" fill="#fff"/>
  <rect width="12" height="10.77" fill="#3c3b6e"/>
  <g fill="#fff">
    <circle cx="1.5" cy="1" r="0.6"/><circle cx="3.5" cy="1" r="0.6"/><circle cx="5.5" cy="1" r="0.6"/>
    <circle cx="7.5" cy="1" r="0.6"/><circle cx="9.5" cy="1" r="0.6"/><circle cx="11.5" cy="1" r="0.6"/>
    <circle cx="2.5" cy="2.5" r="0.6"/><circle cx="4.5" cy="2.5" r="0.6"/><circle cx="6.5" cy="2.5" r="0.6"/>
    <circle cx="8.5" cy="2.5" r="0.6"/><circle cx="10.5" cy="2.5" r="0.6"/>
    <circle cx="1.5" cy="4" r="0.6"/><circle cx="3.5" cy="4" r="0.6"/><circle cx="5.5" cy="4" r="0.6"/>
    <circle cx="7.5" cy="4" r="0.6"/><circle cx="9.5" cy="4" r="0.6"/><circle cx="11.5" cy="4" r="0.6"/>
    <circle cx="2.5" cy="5.5" r="0.6"/><circle cx="4.5" cy="5.5" r="0.6"/><circle cx="6.5" cy="5.5" r="0.6"/>
    <circle cx="8.5" cy="5.5" r="0.6"/><circle cx="10.5" cy="5.5" r="0.6"/>
    <circle cx="1.5" cy="7" r="0.6"/><circle cx="3.5" cy="7" r="0.6"/><circle cx="5.5" cy="7" r="0.6"/>
    <circle cx="7.5" cy="7" r="0.6"/><circle cx="9.5" cy="7" r="0.6"/><circle cx="11.5" cy="7" r="0.6"/>
    <circle cx="2.5" cy="8.5" r="0.6"/><circle cx="4.5" cy="8.5" r="0.6"/><circle cx="6.5" cy="8.5" r="0.6"/>
    <circle cx="8.5" cy="8.5" r="0.6"/><circle cx="10.5" cy="8.5" r="0.6"/>
    <circle cx="1.5" cy="10" r="0.6"/><circle cx="3.5" cy="10" r="0.6"/><circle cx="5.5" cy="10" r="0.6"/>
    <circle cx="7.5" cy="10" r="0.6"/><circle cx="9.5" cy="10" r="0.6"/>
  </g>
</svg>
